<?xml version="1.0" encoding="utf-8"?>
<!-- Generator: Adobe Illustrator 25.0.1, SVG Export Plug-In . SVG Version: 6.00 Build 0)  -->
<svg version="1.1" id="satellite" xmlns="http://www.w3.org/2000/svg" xmlns:xlink="http://www.w3.org/1999/xlink" x="0px" y="0px"
	 viewBox="0 0 522.9 522.7" style="enable-background:new 0 0 522.9 522.7;" xml:space="preserve">
<path class="st0" fill="#e1e1e1" d="M118.9,182.3l63.6-63.6c9.4-9.4,24.8-9.4,34.2,0l117.4,117.5c9.4,9.4,9.4,24.8,0,34.2l-21.9,21.9l16.3,16.3
	l33.1-33.1l70.4,4l-66.4,66.4l20,20c13,13-6.8,32.8-19.8,19.8l-20-20L279.5,432l-4-70.4l33.1-33.1l-16.3-16.3L270.5,334
	c-9.4,9.4-24.8,9.4-34.2,0L118.9,216.5C109.4,207.1,109.4,191.7,118.9,182.3L118.9,182.3z M3.5,385.4l117-117
	c4.7-4.7,12.4-4.7,17.1,0l38.1,38.1c4.7,4.7,4.7,12.4,0,17.1l-117,117c-4.7,4.7-12.4,4.7-17.1,0L3.5,402.5
	C-1.2,397.8-1.2,390.1,3.5,385.4L3.5,385.4z M268.5,120.5l117-117c4.7-4.7,12.4-4.7,17.1,0l38.1,38.1c4.7,4.7,4.7,12.4,0,17.1
	l-117,117c-4.7,4.7-12.4,4.7-17.1,0l-38.1-38.1C263.8,132.9,263.8,125.2,268.5,120.5L268.5,120.5z"/>
</svg>
